if (_typeface_js && _typeface_js.loadFace) _typeface_js.loadFace({"glyphs":{"S":{"x_min":32.78125,"x_max":744.59375,"ha":777,"o":"m 407 937 q 559 920 482 937 q 704 862 637 903 l 704 652 q 404 744 554 744 q 314 725 347 744 q 281 673 281 706 q 299 630 281 648 q 345 601 318 613 q 424 573 373 590 q 585 514 519 544 q 698 425 652 483 q 744 280 744 368 q 693 123 744 190 q 555 22 642 56 q 361 -11 467 -11 q 203 9 281 -11 q 32 81 124 30 l 32 300 q 206 213 112 245 q 376 181 299 181 q 473 204 434 181 q 513 268 513 227 q 487 322 513 299 q 429 356 462 344 q 341 384 397 368 q 184 444 247 410 q 85 531 121 478 q 50 662 50 584 q 96 815 50 753 q 223 907 142 876 q 407 937 304 937 "},"F":{"x_min":84.875,"x_max":722.40625,"ha":731,"o":"m 664 544 l 664 360 l 316 360 l 316 0 l 84 0 l 84 925 l 722 925 l 722 733 l 316 733 l 316 544 l 664 544 "},"T":{"x_min":21.21875,"x_max":787.03125,"ha":809,"o":"m 288 0 l 288 733 l 21 733 l 21 925 l 787 925 l 787 733 l 519 733 l 519 0 l 288 0 "},"N":{"x_min":80.046875,"x_max":996.328125,"ha":1078,"o":"m 301 0 l 80 0 l 80 925 l 326 925 l 774 342 l 774 925 l 996 925 l 996 0 l 749 0 l 301 584 l 301 0 "},"K":{"x_min":84.875,"x_max":960.640625,"ha":979,"o":"m 316 925 l 316 0 l 84 0 l 84 925 l 316 925 m 327 491 l 619 925 l 902 925 l 591 498 l 960 0 l 668 0 l 327 491 "},"Y":{"x_min":10.609375,"x_max":941.359375,"ha":951,"o":"m 360 438 l 10 925 l 299 925 l 481 645 l 661 925 l 941 925 l 592 438 l 592 0 l 360 0 l 360 438 "},"E":{"x_min":84.875,"x_max":722.40625,"ha":783,"o":"m 664 561 l 664 376 l 316 376 l 316 192 l 722 192 l 722 0 l 84 0 l 84 925 l 722 925 l 722 733 l 316 733 l 316 561 l 664 561 "},"V":{"x_min":25.078125,"x_max":993.4375,"ha":1020,"o":"m 280 925 l 509 298 l 737 925 l 993 925 l 634 0 l 383 0 l 25 925 l 280 925 "},"Z":{"x_min":45.328125,"x_max":810.1875,"ha":856,"o":"m 810 0 l 45 0 l 45 192 l 513 733 l 45 733 l 45 925 l 810 925 l 810 733 l 342 192 l 810 192 l 810 0 "},"Q":{"x_min":21.21875,"x_max":1018.515625,"ha":1042,"o":"m 1018 462 q 987 293 1018 373 q 898 150 955 213 l 1018 0 l 782 0 l 750 40 q 519 -11 644 -11 q 268 50 382 -11 q 87 221 154 112 q 21 462 21 329 q 87 704 21 596 q 268 875 154 813 q 519 937 382 937 q 771 875 656 937 q 951 704 885 813 q 1018 462 1018 596 m 519 205 q 607 220 564 205 l 508 347 l 743 347 q 767 462 767 400 q 734 596 767 537 q 644 687 701 654 q 519 720 588 720 q 394 687 451 720 q 305 596 338 654 q 271 462 271 537 q 305 329 271 388 q 394 238 338 271 q 519 205 451 205 "},"M":{"x_min":85.84375,"x_max":1122.6875,"ha":1210,"o":"m 661 252 l 541 252 l 307 590 l 307 0 l 85 0 l 85 925 l 344 925 l 604 556 l 859 925 l 1122 925 l 1122 0 l 891 0 l 891 592 l 661 252 "},"C":{"x_min":21.21875,"x_max":831.40625,"ha":878,"o":"m 500 937 q 683 914 605 937 q 831 847 760 891 l 831 597 q 534 720 699 720 q 401 688 462 720 q 306 597 341 655 q 271 462 271 539 q 306 328 271 386 q 401 237 341 270 q 534 205 462 205 q 831 328 699 205 l 831 78 q 687 10 765 32 q 500 -11 609 -11 q 259 50 369 -11 q 85 221 149 112 q 21 462 21 329 q 85 704 21 596 q 259 875 149 813 q 500 937 369 937 "},"L":{"x_min":89.6875,"x_max":727.234375,"ha":742,"o":"m 89 0 l 89 925 l 321 925 l 321 217 l 727 217 l 727 0 l 89 0 "},"A":{"x_min":25.078125,"x_max":993.4375,"ha":1020,"o":"m 383 925 l 634 925 l 993 0 l 761 0 l 686 205 l 331 205 l 256 0 l 25 0 l 383 925 m 509 726 l 399 398 l 619 398 l 509 726 "},"J":{"x_min":-3.859375,"x_max":587.390625,"ha":673,"o":"m 587 342 q 547 156 587 236 q 434 32 508 76 q 257 -11 359 -11 q 113 10 182 -11 q -3 70 44 31 l -3 321 q 100 245 45 272 q 202 217 156 217 q 312 254 269 217 q 355 365 355 290 l 355 925 l 587 925 l 587 342 "},"O":{"x_min":21.21875,"x_max":1018.515625,"ha":1042,"o":"m 519 937 q 770 875 655 937 q 951 704 884 813 q 1018 462 1018 596 q 951 221 1018 329 q 770 50 884 112 q 519 -11 655 -11 q 269 50 383 -11 q 88 221 155 112 q 21 462 21 329 q 88 704 21 596 q 269 875 155 813 q 519 937 383 937 m 519 720 q 394 687 451 720 q 305 596 338 654 q 271 462 271 537 q 305 329 271 388 q 394 238 338 271 q 519 205 451 205 q 644 238 588 205 q 734 329 701 271 q 767 462 767 388 q 734 596 767 537 q 644 687 701 654 q 519 720 588 720 "},"W":{"x_min":0,"x_max":1388.890625,"ha":1389,"o":"m 520 0 l 289 0 l 0 925 l 231 925 l 405 326 l 578 925 l 810 925 l 983 326 l 1157 925 l 1388 925 l 1099 0 l 868 0 l 694 598 l 520 0 "}," ":{"x_min":0,"x_max":0,"ha":342},"X":{"x_min":10.609375,"x_max":988.625,"ha":999,"o":"m 496 317 l 290 0 l 10 0 l 357 480 l 39 925 l 328 925 l 503 649 l 679 925 l 959 925 l 642 486 l 988 0 l 699 0 l 496 317 "},"P":{"x_min":84.875,"x_max":807.28125,"ha":835,"o":"m 470 925 q 639 882 562 925 q 761 764 716 839 q 807 602 807 690 q 761 440 807 515 q 639 323 716 366 q 470 279 562 279 l 316 279 l 316 0 l 84 0 l 84 925 l 470 925 m 441 472 q 507 489 477 472 q 554 537 537 507 q 571 602 571 567 q 554 668 571 638 q 507 715 537 698 q 441 733 477 733 l 316 733 l 316 472 l 441 472 "},"B":{"x_min":84.875,"x_max":841.046875,"ha":883,"o":"m 461 925 q 629 894 556 925 q 743 805 703 862 q 783 676 783 748 q 756 572 783 619 q 679 492 729 525 q 797 400 754 460 q 841 266 841 341 q 798 128 841 189 q 679 33 756 67 q 501 0 601 0 l 84 0 l 84 925 l 461 925 m 452 564 q 523 591 495 564 q 551 656 551 618 q 523 721 551 695 q 452 748 495 748 l 316 748 l 316 564 l 452 564 m 492 177 q 576 209 543 177 q 609 286 609 241 q 576 363 609 331 q 492 395 543 395 l 316 395 l 316 177 l 492 177 "},"H":{"x_min":84.875,"x_max":944.25,"ha":1031,"o":"m 326 360 l 326 0 l 84 0 l 84 925 l 326 925 l 326 577 l 703 577 l 703 925 l 944 925 l 944 0 l 703 0 l 703 360 l 326 360 "},"D":{"x_min":84.875,"x_max":969.328125,"ha":993,"o":"m 473 925 q 723 866 609 925 q 903 701 837 807 q 969 462 969 595 q 903 224 969 330 q 723 59 837 118 q 473 0 609 0 l 84 0 l 84 925 l 473 925 m 473 208 q 597 240 542 208 q 686 329 653 271 q 719 462 719 387 q 686 596 719 538 q 597 685 653 653 q 473 716 542 716 l 316 716 l 316 208 l 473 208 "},"R":{"x_min":87.765625,"x_max":867.09375,"ha":893,"o":"m 473 925 q 642 882 565 925 q 765 764 720 839 q 811 602 811 690 q 769 449 811 519 q 656 338 727 379 l 867 0 l 601 0 l 429 279 l 319 279 l 319 0 l 87 0 l 87 925 l 473 925 m 444 472 q 510 489 480 472 q 557 537 540 507 q 574 602 574 567 q 557 668 574 638 q 510 715 540 698 q 444 733 480 733 l 319 733 l 319 472 l 444 472 "},"I":{"x_min":99.34375,"x_max":330.828125,"ha":431,"o":"m 330 925 l 330 0 l 99 0 l 99 925 l 330 925 "},"G":{"x_min":21.21875,"x_max":878.65625,"ha":936,"o":"m 543 937 q 718 915 625 937 q 878 847 811 894 l 878 613 q 728 692 815 663 q 557 720 641 720 q 407 688 471 720 q 307 597 342 656 q 271 461 271 539 q 307 320 271 381 q 406 223 342 258 q 549 189 469 189 q 618 198 581 189 q 685 223 654 207 l 684 356 l 519 356 l 519 525 l 878 525 l 878 95 q 709 15 802 43 q 526 -11 617 -11 q 270 50 385 -11 q 87 220 154 111 q 21 462 21 328 q 83 700 21 592 q 265 873 146 809 q 543 937 383 937 "},"U":{"x_min":75.234375,"x_max":896.984375,"ha":973,"o":"m 896 394 q 841 181 896 273 q 692 38 786 88 q 486 -11 597 -11 q 278 38 372 -11 q 130 180 185 88 q 75 394 75 272 l 75 925 l 315 925 l 315 394 q 337 290 315 334 q 398 223 359 246 q 486 200 436 200 q 572 223 534 200 q 633 290 611 246 q 655 394 655 334 l 655 925 l 896 925 l 896 394 "}}}
